<svg xmlns="http://www.w3.org/2000/svg" xmlns:xlink="http://www.w3.org/1999/xlink" viewBox="0 0 1133.17 1469.34"><defs><style>.cls-1{fill:url(#linear-gradient);}</style><linearGradient id="linear-gradient" x1="211.67" y1="43.6" x2="1071.01" y2="1184.08" gradientUnits="userSpaceOnUse"><stop offset="0" stop-color="#ff6236"/><stop offset="1" stop-color="#ff276c"/></linearGradient></defs><title>Asset 1</title><g id="Layer_2" data-name="Layer 2"><g id="Layer_1-2" data-name="Layer 1"><path class="cls-1" d="M109.69.39c-25,21.33-90.33,84.73-106,175-27.63,159.12,108.27,276.86,134,298,5.53,4.55,133.88,107.69,289,88,62.55-7.94,86.22-30.37,160.5-26.5,38.88,2,105.49,5.49,158.5,55.5,10.47,9.88,65.65,61.89,59,135-6.4,70.28-64.65,114.85-88,127-112.5,58.5-225.71,45.32-311,62-57.5,11.24-99,19.94-143,52-57.25,41.68-80.68,96-86,109-5.54,13.48-24.62,61.41-18,117,11.33,95.21,91.13,154.91,126,181,161.78,121,426.24,128.14,629,18,105.91-57.54,175.59-136.53,219-199,0-198.5,1.08-397,0-595.5s-2.17-397,0-595.5C785,3.06,457.35-1.28,109.69.39Z"/></g></g></svg>