<svg xmlns="http://www.w3.org/2000/svg" xmlns:xlink="http://www.w3.org/1999/xlink" viewBox="0 0 1497.02 1393.27"><defs><style>.cls-1{fill:url(#linear-gradient);}</style><linearGradient id="linear-gradient" y1="696.64" x2="1497.02" y2="696.64" gradientUnits="userSpaceOnUse"><stop offset="0" stop-color="#ff6236" stop-opacity="0.2"/><stop offset="1" stop-color="#ff276c" stop-opacity="0.2"/></linearGradient></defs><title>Asset 4</title><g id="Layer_2" data-name="Layer 2"><g id="Layer_1-2" data-name="Layer 1"><path class="cls-1" d="M48.81,164.89C-33,293.37-.9,472.51,63.81,588.89c77.06,138.56,204,192.89,248,211,50.51,20.77,207.29,86.65,340,22,52.32-25.48,63.1-52.8,119-63,60.56-11,162.46.12,197,74,22.3,47.7,12.44,112.9-24,151-49.62,51.9-104.51,7.5-197,54-95.85,48.2-138,146.67-153,182-24.67,58.18-37.14,87.33-26,112,38.88,86,304.41,80.06,502-8,64.87-28.91,223.9-111.89,328-294,126.54-221.36,146.64-544.94-26-775-184-245.22-486.2-249.84-758-254C405.87-2.29,157.65-6.09,48.81,164.89Z"/></g></g></svg>