<svg xmlns="http://www.w3.org/2000/svg" viewBox="0 0 16 24.33"><title>Asset 1</title><g id="Layer_2" data-name="Layer 2"><g id="Layer_1-2" data-name="Layer 1"><path d="M10.4,23.48l.06-.45A31.45,31.45,0,0,0,9.19,11.68C8.87,10.5,8.5,9.32,8.08,8.15c.35.88.8,2.12,1.3,3.8.16.56.31,1.12.46,1.71l.11.45c1.32,5.7,1.39,7.56,1.28,8.73,0,.28-.07.57-.12.85Z"/><path d="M7.25,4.84l-.88.36a48.79,48.79,0,0,1,2.34,6.61C10.44,18.09,10.11,21.75,10,23c0,.36-.08.66-.12.86l1.66.5a13.23,13.23,0,0,0,.22-1.44c.11-1,.14-2.76-1.28-8.89,0-.17-.08-.32-.11-.46-.15-.6-.31-1.16-.46-1.69A43.64,43.64,0,0,0,8.26,7.3c-.07-.18-.3-.68-.59-1.39-.18-.46-.33-.83-.42-1.07Z"/><path d="M4.9,12.21a4.44,4.44,0,0,1-.29-1.13,5.44,5.44,0,0,1,.7-3.22c.09-.18.18-.32.24-.42l.63-1L5,6.68a6.89,6.89,0,0,0-1.48.47,7.37,7.37,0,0,0-2.5,2L1.1,9A5,5,0,0,1,2.78,6.82,10.64,10.64,0,0,1,4.4,5.93l.69-.3,1.23-.47L5.09,4.7a4.84,4.84,0,0,0-1.24-.28H3.48a4.54,4.54,0,0,0-1.12.13,4,4,0,0,1,1.2-.38,4.51,4.51,0,0,1,2.5.38,5.19,5.19,0,0,1,.56.3l.53.33.21-.59a6.2,6.2,0,0,1,2.25-3A6.43,6.43,0,0,1,11.06.82a6.61,6.61,0,0,0-2,2c-.16.27-.28.51-.36.67l-.47,1,1.08-.34A5.55,5.55,0,0,1,11,4a5.45,5.45,0,0,1,2.67.72,5,5,0,0,0-1.46-.23,4.23,4.23,0,0,0-1,.12,4.11,4.11,0,0,0-.68.22l-1.16.49,1.18.44a4.12,4.12,0,0,1,.91.47A4.65,4.65,0,0,1,13.2,8.82a4.4,4.4,0,0,0-.94-1.17A4.7,4.7,0,0,0,9.17,6.46a4.17,4.17,0,0,0-1.06.14,4,4,0,0,0-1.17.52l-.06,0,0,0A7.52,7.52,0,0,0,5.28,10,7.74,7.74,0,0,0,4.9,12.21Z"/><path d="M9.34,4.73,8,5.31l1.9.7a5.52,5.52,0,0,0-.71,0,4.44,4.44,0,0,0-2.5.74l-.09.06.62-1,.22.14.23-.67,1.69-.53m-2.57.79.37.24-2,.39.13-.05,1.5-.58m6-5.52A6.21,6.21,0,0,0,9.32,1.18,6.66,6.66,0,0,0,6.89,4.42a4.66,4.66,0,0,0-.62-.34,5.17,5.17,0,0,0-2.09-.46,4.35,4.35,0,0,0-.7,0A5,5,0,0,0,.82,5,6,6,0,0,0,0,6l.42-.15c.87-.32,1.26-.52,1.62-.65a4.28,4.28,0,0,1,1.44-.25h.33a3.9,3.9,0,0,1,1.1.25c-.18.06-.43.17-.72.3a12,12,0,0,0-1.7.94A5.54,5.54,0,0,0,.64,8.81a5.66,5.66,0,0,0-.42,1.91,5,5,0,0,0,.06.94A3.79,3.79,0,0,1,.49,11,6.73,6.73,0,0,1,3.76,7.61a6,6,0,0,1,1.37-.44,4.65,4.65,0,0,0-.26.45,5.89,5.89,0,0,0-.76,3.52,5.79,5.79,0,0,0,1,2.46,4.29,4.29,0,0,0,.85,1.12h0c.07,0-.15-.53-.24-.77a5.91,5.91,0,0,1,.07-3.8,7,7,0,0,1,1.45-2.6,3.72,3.72,0,0,1,1-.46A3.65,3.65,0,0,1,9.17,7,4.19,4.19,0,0,1,11.92,8a4.47,4.47,0,0,1,1.33,3.89,4.5,4.5,0,0,0,.5-1.31,5,5,0,0,0-2-4.82,4.78,4.78,0,0,0-1-.53,3.52,3.52,0,0,1,.6-.2,3.92,3.92,0,0,1,.89-.1A6.49,6.49,0,0,1,16,6.53a3.89,3.89,0,0,0-.31-.61A5.47,5.47,0,0,0,12.5,3.67,5.77,5.77,0,0,0,11,3.46a6.22,6.22,0,0,0-1.82.28,6.84,6.84,0,0,1,.33-.62A6.29,6.29,0,0,1,12.16.78a6.35,6.35,0,0,1,2-.57,4.52,4.52,0,0,0-.8-.17,4.22,4.22,0,0,0-.6,0Z"/></g></g></svg>