<svg xmlns="http://www.w3.org/2000/svg" viewBox="0 0 285.65 342.9"><defs><style>.cls-1{fill:#ff324a;}</style></defs><title>Asset 1</title><g id="Layer_2" data-name="Layer 2"><g id="Layer_1-2" data-name="Layer 1"><path class="cls-1" d="M173.72,58.36c-13.31-2.62-40.89-7.6-72,2.24-7,2.22-25.36,10.21-46.36,24.95-39.71,27.87-50,74.25-52,83.14C-6.81,215.05,8.82,251.5,12.22,259c17,37.71,45.85,57.11,59.16,64.76a149.08,149.08,0,0,0,87.15,18.39,145.7,145.7,0,0,0,39.17-9.59c-17.92-13.09-31.18-23.19-32-24l-3.19-3.2c-24.59-21.32-23.54-47.93-23.63-58a60.23,60.23,0,0,1,.44-7.51,47.07,47.07,0,0,1,6.4-19.19l62.36,20a35.23,35.23,0,0,0,5.59,1.59c12.41,2.27,28.59-2.22,38.38-14.39,10.4-12.93,11.47-31.88,2.4-47.17L200.1,114.33,285.65,13.59,267.26,0C235.81,18.92,205.16,39.44,173.72,58.36Z"/></g></g></svg>